<svg xmlns="http://www.w3.org/2000/svg" viewBox="0 0 240 240"><defs><style>.cls-1{fill:#e11f26;}</style></defs><title>Asset 1</title><g id="Layer_2" data-name="Layer 2"><g id="Layer_1-2" data-name="Layer 1"><path class="cls-1" d="M232,8V232H8V8H232m8-8H0V240H240V0Z"/><path class="cls-1" d="M60.24,170.41a8.3,8.3,0,0,0,10.65-5l31-85.21a8.31,8.31,0,1,0-15.61-5.68l-31,85.21a8.31,8.31,0,0,0,5,10.65Z"/><path class="cls-1" d="M97,166.12a8.3,8.3,0,0,0,15.33-.67l31-85.21a8.31,8.31,0,1,0-15.61-5.68l-31,85.21A8.25,8.25,0,0,0,97,166.12Z"/><path class="cls-1" d="M138.38,166.12a8.3,8.3,0,0,0,15.33-.67l31-85.21a8.31,8.31,0,1,0-15.61-5.68l-31,85.21A8.25,8.25,0,0,0,138.38,166.12Z"/></g></g></svg>