<svg xmlns="http://www.w3.org/2000/svg" viewBox="0 0 719.65 118.03"><defs><style>.cls-1{fill:#e11f26;}.cls-2{fill:#0a3049;}</style></defs><title>Asset 1</title><g id="Layer_2" data-name="Layer 2"><g id="Layer_1-2" data-name="Layer 1"><path class="cls-1" d="M114.09,3.93V114.09H3.93V3.93H114.09M118,0H0V118H118V0Z"/><path class="cls-1" d="M29.62,83.8a4.08,4.08,0,0,0,5.24-2.44L50.11,39.46a4.08,4.08,0,1,0-7.68-2.79L27.18,78.57a4.09,4.09,0,0,0,2.44,5.24Z"/><path class="cls-1" d="M47.69,81.69a4.08,4.08,0,0,0,7.54-.33L70.48,39.46a4.08,4.08,0,1,0-7.68-2.79L47.55,78.57A4.06,4.06,0,0,0,47.69,81.69Z"/><path class="cls-1" d="M68.05,81.69a4.08,4.08,0,0,0,7.54-.33L90.85,39.46a4.08,4.08,0,1,0-7.68-2.79L67.92,78.57A4.06,4.06,0,0,0,68.05,81.69Z"/><path class="cls-2" d="M428.71,75.48h0s0,0,0,0,0-.07,0-.1a19,19,0,0,0-.12-1.93c0-.07,0-.14,0-.21q-.09-.75-.25-1.49c0-.16-.08-.33-.11-.49l-.05-.2-.1-.37-.15-.52,0-.1a18.76,18.76,0,0,0-1.6-3.73,17.91,17.91,0,0,0-11.09-9.35,22.35,22.35,0,0,0-2.94-.87L424.7,38.89V33.35H393.81v7h21.51L403.85,56.11l-.39.53v5.68h6.34a15.81,15.81,0,0,1,3.58,1,8.88,8.88,0,0,1,3.13,1.7,12.85,12.85,0,0,1,5.64,10.46c0,7.34-6.56,13.28-14.66,13.28-5.42,0-10.75-3.06-13.07-6.24l-1.5,1.5-3.11,3.11h0l-.08.08.11.15a21.9,21.9,0,0,0,17.42,8.36c11.85,0,21.45-9,21.45-20.09v-.05S428.71,75.5,428.71,75.48Z"/><path class="cls-2" d="M149.62,34l.47-.56,7.58.07.56.37L170.6,71.18l.94,4.12.84-4,8.34-27.91V34l.47-.56,6.65.07.47.47V44.2l7.78,27.07.84,4,.84-4.12L209.5,34.08l.47-.56h7.56l.56.37L200,84.48l-.47.47-6.1,0-.47-.47L185.22,58l-.94-4.12L183.35,58l-8,26.51-.47.47-6,0-.47-.47Z"/><path class="cls-2" d="M231.26,34.2l.47-.75,6.74.07.47.47V54.41h27.35V34.2l.47-.75,6.75.07.47.56V83.91l-.47.47h-6.75l-.47-.47V61.34H238.94V83.91l-.47.47h-6.74l-.47-.47Z"/><path class="cls-2" d="M307,34l.47-.47H315l.47.47,18.92,49.93-.47.47h-7.4l-.47-.47-4.12-11.71H300.54l-4.12,11.71-.47.47h-7.4l-.47-.47Zm12.51,31.66-7.49-21.26-.93-3.28-.85,3.28-7.49,21.26Z"/><path class="cls-2" d="M353.45,40.38h-14.8l-.47-.47v-6l.47-.47h37.42l.38.47,0,6-.56.47H361.13V83.91l-.47.47h-6.74l-.47-.47Z"/><path class="cls-2" d="M444,34l.47-.56,7.58.07.56.37L465,71.18l.94,4.12.84-4,8.34-27.91V34l.47-.56,6.65.07.47.47V44.2l7.78,27.07.84,4,.84-4.12,11.73-37.09.47-.56h7.56l.56.37L494.4,84.48l-.47.47-6.1,0-.47-.47L479.6,58l-.94-4.12L477.73,58l-8,26.51-.47.47-6,0-.47-.47Z"/><path class="cls-2" d="M521.08,51.78c0-12.18,8.62-18.73,21.45-18.73S564,39.61,564,51.78V67c0,12.09-8.62,18.55-21.45,18.55S521.08,79,521.08,67Zm21.45,26.79c7.87,0,13.68-3.94,13.68-12.36V52.35C556.2,44.2,550.4,40,542.53,40s-13.68,4.22-13.68,12.37V66.21C528.85,74.64,534.66,78.57,542.53,78.57Z"/><path class="cls-2" d="M582,34.64l.47-.47H597.1c9.27,0,18.74,3,18.74,14.24,0,14.43-15.27,15.08-15.27,15.08l2.91,2.72,7.87,8.62c1.78,1.87,3.47,2.9,5.62,2.9a12,12,0,0,0,1.78-.1l.38.47-1,5.9-.56.47a15.51,15.51,0,0,1-2.06.09c-4.5,0-8.43-3.37-11-6.28l-12.27-14-.66-.38H589.7v20l-.47.47h-6.74l-.47-.47ZM597,57.4c5.62,0,11.24-2.15,11.24-8.52s-5.62-8.15-11.24-8.15H589.7V57.4Z"/><path class="cls-2" d="M634.69,34.64l.47-.47h18.26c12.74,0,21.36,6.56,21.36,18.73V65.84c0,12.18-8.62,18.55-21.36,18.55H635.16l-.47-.47Zm18.73,42.81c7.87,0,13.58-3.93,13.58-12.27V53.47c0-8.15-5.71-12.36-13.58-12.36H642.37V77.45Z"/><path class="cls-2" d="M686.3,80.07,689.86,75l.84-.1a20.83,20.83,0,0,0,11.15,3.47c5.43,0,10-2.06,10-7.87,0-11.24-23.89-6.09-23.89-22.76,0-9.18,7.59-14.71,16.39-14.71,8.15,0,13.49,3.28,14.33,3.93l.09.66-3.56,5.06-.75.09a17,17,0,0,0-9.74-2.72c-6.09,0-8.9,3.09-8.9,7.4,0,10,23.79,5.9,23.79,23,0,11.43-9.74,15-18,15s-15.17-4.68-15.17-4.68Z"/></g></g></svg>